# xmcd
#
# Track frame offsets:
#	150
#	9111
#	22292
#	32074
#	42939
#	55971
#	66321
#	77919
#	88790
#	98842
#	110154
#	121840
#	133019
#	145034
#	154973
#	166506
#	177167
#	189584
#	203623
#
# Disc length: 2998 seconds
#
# Revision: 0
# Processed by: cddbd v1.5.2PL0 Copyright (c) Steve Scherf et al.
# Submitted via: audiograbber 1.83.01
#
DISCID=fe0bb413
DTITLE=Elvis Presley - For LP Fans Only SE
DYEAR=2007
DGENRE=Country
TTITLE0=Elvis Presley - That's All Right Mama
TTITLE1=Arthru Crudup - That's All Right Mama
TTITLE2=Elvis Presley - Lawdy Miss Clawdy
TTITLE3=Elvis Presley - Mystery Train
TTITLE4=Elvis Presley - Playing For Keeps
TTITLE5=Elvis Presley - Poor Boy
TTITLE6=Elvis Presley - Money Honey
TTITLE7=Elvis Presley - I'm Counting On You
TTITLE8=Elvis Presley - My Baby Left Me
TTITLE9=Arthur Crudup - My Baby Left Me
TTITLE10=Elvis Presley - I Was The One
TTITLE11=Elvis Presley - Shake Rattle and Roll
TTITLE12=Elvis Presley - I'm Left You're Right She's Gone
TTITLE13=Elvis Presley - You're A Heartbreaker
TTITLE14=Elvis Presley - Tryin' To Get To You
TTITLE15=Elvis Presley - So Glad You're Mine
TTITLE16=Arthur Crudup - So Glad You're Mine
TTITLE17=Arthur Crudup - Dirt Road Blues
TTITLE18=Robin Lee - Black Velvet
EXTD=Elvis with his deep blues roots.
EXTT0=
EXTT1=
EXTT2=
EXTT3=
EXTT4=
EXTT5=
EXTT6=
EXTT7=
EXTT8=
EXTT9=
EXTT10=
EXTT11=
EXTT12=
EXTT13=
EXTT14=
EXTT15=
EXTT16=
EXTT17=
EXTT18=
PLAYORDER=
